G04 #@! TF.GenerationSoftware,KiCad,Pcbnew,6.0.7-f9a2dced07~116~ubuntu20.04.1*
G04 #@! TF.CreationDate,2022-08-17T23:21:15-04:00*
G04 #@! TF.ProjectId,mmwave,6d6d7761-7665-42e6-9b69-6361645f7063,B*
G04 #@! TF.SameCoordinates,Original*
G04 #@! TF.FileFunction,Copper,L2,Bot*
G04 #@! TF.FilePolarity,Positive*
%FSLAX46Y46*%
G04 Gerber Fmt 4.6, Leading zero omitted, Abs format (unit mm)*
G04 Created by KiCad (PCBNEW 6.0.7-f9a2dced07~116~ubuntu20.04.1) date 2022-08-17 23:21:15*
%MOMM*%
%LPD*%
G01*
G04 APERTURE LIST*
G04 #@! TA.AperFunction,ComponentPad*
%ADD10R,1.600000X1.600000*%
G04 #@! TD*
G04 #@! TA.AperFunction,ComponentPad*
%ADD11C,1.600000*%
G04 #@! TD*
G04 #@! TA.AperFunction,ComponentPad*
%ADD12O,2.000000X1.000000*%
G04 #@! TD*
G04 #@! TA.AperFunction,ComponentPad*
%ADD13O,2.100000X1.050000*%
G04 #@! TD*
G04 #@! TA.AperFunction,ComponentPad*
%ADD14C,2.946400*%
G04 #@! TD*
G04 #@! TA.AperFunction,SMDPad,CuDef*
%ADD15R,1.270000X4.826000*%
G04 #@! TD*
G04 #@! TA.AperFunction,HeatsinkPad*
%ADD16R,2.900000X2.900000*%
G04 #@! TD*
G04 #@! TA.AperFunction,ComponentPad*
%ADD17O,1.270000X2.540000*%
G04 #@! TD*
G04 #@! TA.AperFunction,ComponentPad*
%ADD18R,1.700000X1.200000*%
G04 #@! TD*
G04 #@! TA.AperFunction,ComponentPad*
%ADD19O,1.700000X1.200000*%
G04 #@! TD*
G04 #@! TA.AperFunction,ViaPad*
%ADD20C,1.270000*%
G04 #@! TD*
G04 #@! TA.AperFunction,ViaPad*
%ADD21C,0.812800*%
G04 #@! TD*
G04 #@! TA.AperFunction,Conductor*
%ADD22C,0.609600*%
G04 #@! TD*
G04 #@! TA.AperFunction,Conductor*
%ADD23C,0.406400*%
G04 #@! TD*
G04 #@! TA.AperFunction,Conductor*
%ADD24C,0.203200*%
G04 #@! TD*
G04 APERTURE END LIST*
D10*
X113030000Y-81915000D03*
D11*
X115570000Y-81915000D03*
X113030000Y-84455000D03*
X115570000Y-84455000D03*
X113030000Y-86995000D03*
X115570000Y-86995000D03*
D12*
X156579997Y-69340000D03*
X156579997Y-77980000D03*
D13*
X152399997Y-69340000D03*
X152399997Y-77980000D03*
D14*
X154305000Y-93345000D03*
X114935000Y-53975000D03*
X114935000Y-93345000D03*
D15*
X134620000Y-85852000D03*
D16*
X124585000Y-67620000D03*
D14*
X154305000Y-53975000D03*
D10*
X149225000Y-66675000D03*
D11*
X149225000Y-64135000D03*
X149225000Y-61595000D03*
X149225000Y-59055000D03*
D17*
X132080000Y-85725000D03*
X134620000Y-86995000D03*
X137160000Y-85725000D03*
D10*
X140970000Y-51752500D03*
D11*
X138430000Y-51752500D03*
X135890000Y-51752500D03*
X133350000Y-51752500D03*
X130810000Y-51752500D03*
X128270000Y-51752500D03*
D18*
X134620000Y-72660000D03*
D19*
X134620000Y-74660000D03*
D20*
X146050000Y-64135000D03*
X146050000Y-60325000D03*
X130175000Y-79375000D03*
X121285000Y-85725000D03*
X127000000Y-57785000D03*
X137160000Y-60325000D03*
X137160000Y-64135000D03*
X125730000Y-85725000D03*
X154940000Y-63500000D03*
D21*
X122479300Y-78740000D03*
D20*
X143510000Y-67945000D03*
X131445000Y-72390000D03*
D21*
X120015000Y-71120000D03*
X121285000Y-70485000D03*
X118110000Y-83185000D03*
X119380000Y-74930000D03*
X128270000Y-80645000D03*
X134620000Y-80645000D03*
X132715000Y-75565000D03*
X128174300Y-75565000D03*
X134620000Y-66675000D03*
X142240000Y-75819000D03*
X154940000Y-85725000D03*
X123825000Y-74295000D03*
X135509000Y-67945000D03*
X144145000Y-80010000D03*
X125095000Y-74930000D03*
X154940000Y-83185000D03*
D20*
X140650000Y-71755000D03*
X133350000Y-70485000D03*
X133350000Y-57785000D03*
X149860000Y-75900100D03*
X148590000Y-73660000D03*
D22*
X156579997Y-67679997D02*
X154940000Y-66040000D01*
D23*
X121285000Y-85725000D02*
X125730000Y-85725000D01*
D22*
X154940000Y-66040000D02*
X154940000Y-63500000D01*
D23*
X125730000Y-79375000D02*
X125730000Y-85725000D01*
D22*
X152399997Y-69340000D02*
X156579997Y-69340000D01*
X156579997Y-69340000D02*
X156579997Y-67679997D01*
D23*
X130175000Y-79375000D02*
X125730000Y-79375000D01*
X146050000Y-59055000D02*
X146050000Y-60325000D01*
X118110000Y-86995000D02*
X115570000Y-86995000D01*
X122555000Y-76200000D02*
X122555000Y-73025000D01*
X122555000Y-73025000D02*
X124585000Y-70995000D01*
X137160000Y-85090000D02*
X137160000Y-79375000D01*
X137160000Y-79375000D02*
X130175000Y-79375000D01*
X124585000Y-70995000D02*
X124585000Y-67620000D01*
X121285000Y-85725000D02*
X119380000Y-85725000D01*
D22*
X156579997Y-77980000D02*
X156579997Y-69340000D01*
D23*
X136255000Y-74660000D02*
X137160000Y-75565000D01*
X137160000Y-75565000D02*
X137160000Y-79375000D01*
X119380000Y-85725000D02*
X118110000Y-86995000D01*
X149225000Y-59055000D02*
X146050000Y-59055000D01*
X134620000Y-74660000D02*
X136255000Y-74660000D01*
X125730000Y-79375000D02*
X122555000Y-76200000D01*
D24*
X118110000Y-84455000D02*
X122479300Y-80085700D01*
X115570000Y-84455000D02*
X118110000Y-84455000D01*
X122479300Y-80085700D02*
X122479300Y-78740000D01*
D23*
X132440395Y-69215000D02*
X136525000Y-69215000D01*
X131445000Y-72390000D02*
X131445000Y-70210395D01*
X137795000Y-67945000D02*
X143510000Y-67945000D01*
X149225000Y-66675000D02*
X146685000Y-66675000D01*
X131445000Y-70210395D02*
X132440395Y-69215000D01*
X136525000Y-69215000D02*
X137795000Y-67945000D01*
X146685000Y-66675000D02*
X145415000Y-67945000D01*
X145415000Y-67945000D02*
X143510000Y-67945000D01*
D24*
X120650000Y-74295000D02*
X120650000Y-79375000D01*
X116840000Y-83185000D02*
X120650000Y-79375000D01*
X120015000Y-71120000D02*
X120015000Y-73660000D01*
X114300000Y-83185000D02*
X116840000Y-83185000D01*
X113030000Y-84455000D02*
X114300000Y-83185000D01*
X120015000Y-73660000D02*
X120650000Y-74295000D01*
X118110000Y-83185000D02*
X121285000Y-80010000D01*
X121285000Y-80010000D02*
X121285000Y-70485000D01*
X119380000Y-74930000D02*
X118745000Y-75565000D01*
X118745000Y-75565000D02*
X118745000Y-78740000D01*
X118745000Y-78740000D02*
X115570000Y-81915000D01*
X128270000Y-80645000D02*
X134620000Y-80645000D01*
X132715000Y-75565000D02*
X128174300Y-75565000D01*
X129540000Y-69215000D02*
X129540000Y-73025000D01*
X142240000Y-80010000D02*
X143510000Y-81280000D01*
X134620000Y-66675000D02*
X132080000Y-66675000D01*
X142240000Y-75819000D02*
X142240000Y-80010000D01*
X143510000Y-83820000D02*
X144780000Y-85090000D01*
X143510000Y-81280000D02*
X143510000Y-83820000D01*
X128905000Y-73660000D02*
X124460000Y-73660000D01*
X129540000Y-73025000D02*
X128905000Y-73660000D01*
X144780000Y-85090000D02*
X151765000Y-85090000D01*
X124460000Y-73660000D02*
X123825000Y-74295000D01*
X132080000Y-66675000D02*
X129540000Y-69215000D01*
X151765000Y-85090000D02*
X152400000Y-85725000D01*
X152400000Y-85725000D02*
X154940000Y-85725000D01*
X125730000Y-74295000D02*
X125095000Y-74930000D01*
X144145000Y-80010000D02*
X144145000Y-82550000D01*
X129540000Y-74295000D02*
X125730000Y-74295000D01*
X130175000Y-69850000D02*
X130175000Y-73660000D01*
X151765000Y-83820000D02*
X152400000Y-83185000D01*
X152400000Y-83185000D02*
X154940000Y-83185000D01*
X145415000Y-83820000D02*
X151765000Y-83820000D01*
X135509000Y-67945000D02*
X132080000Y-67945000D01*
X144145000Y-82550000D02*
X145415000Y-83820000D01*
X132080000Y-67945000D02*
X130175000Y-69850000D01*
X130175000Y-73660000D02*
X129540000Y-74295000D01*
D23*
X140650000Y-71755000D02*
X136525000Y-71755000D01*
X136525000Y-71755000D02*
X135255000Y-70485000D01*
X128270000Y-55245000D02*
X128270000Y-51752500D01*
X135255000Y-70485000D02*
X133350000Y-70485000D01*
X130810000Y-57785000D02*
X128270000Y-55245000D01*
X133350000Y-57785000D02*
X130810000Y-57785000D01*
X149860000Y-74930000D02*
X149860000Y-75900100D01*
X148590000Y-73660000D02*
X149860000Y-74930000D01*
X134620000Y-72660000D02*
X136160000Y-72660000D01*
X137160000Y-73660000D02*
X148590000Y-73660000D01*
X136160000Y-72660000D02*
X137160000Y-73660000D01*
G04 #@! TA.AperFunction,Conductor*
G36*
X127165641Y-50820002D02*
G01*
X127212134Y-50873658D01*
X127222238Y-50943932D01*
X127200733Y-50998270D01*
X127135637Y-51091237D01*
X127135633Y-51091243D01*
X127132477Y-51095751D01*
X127130154Y-51100733D01*
X127130151Y-51100738D01*
X127089852Y-51187161D01*
X127035716Y-51303257D01*
X127034294Y-51308565D01*
X127034293Y-51308567D01*
X126987718Y-51482385D01*
X126976457Y-51524413D01*
X126956502Y-51752500D01*
X126976457Y-51980587D01*
X126977881Y-51985900D01*
X126977881Y-51985902D01*
X127015025Y-52124522D01*
X127035716Y-52201743D01*
X127038039Y-52206724D01*
X127038039Y-52206725D01*
X127130151Y-52404262D01*
X127130154Y-52404267D01*
X127132477Y-52409249D01*
X127263802Y-52596800D01*
X127425700Y-52758698D01*
X127504572Y-52813925D01*
X127548899Y-52869381D01*
X127558300Y-52917137D01*
X127558300Y-55215970D01*
X127558008Y-55224540D01*
X127554055Y-55282521D01*
X127555360Y-55289997D01*
X127555360Y-55290000D01*
X127565096Y-55345783D01*
X127566059Y-55352308D01*
X127573768Y-55416011D01*
X127576454Y-55423119D01*
X127577019Y-55425419D01*
X127581686Y-55442480D01*
X127582366Y-55444734D01*
X127583672Y-55452215D01*
X127586724Y-55459167D01*
X127609475Y-55510995D01*
X127611967Y-55517102D01*
X127626121Y-55554558D01*
X127634657Y-55577149D01*
X127638956Y-55583404D01*
X127640049Y-55585495D01*
X127648655Y-55600957D01*
X127649858Y-55602991D01*
X127652911Y-55609946D01*
X127657534Y-55615971D01*
X127657537Y-55615976D01*
X127691988Y-55660874D01*
X127695864Y-55666209D01*
X127727918Y-55712847D01*
X127727923Y-55712853D01*
X127732225Y-55719112D01*
X127737899Y-55724167D01*
X127778973Y-55760763D01*
X127784249Y-55765744D01*
X130286220Y-58267716D01*
X130292073Y-58273981D01*
X130330282Y-58317781D01*
X130336500Y-58322151D01*
X130382793Y-58354686D01*
X130388089Y-58358619D01*
X130432631Y-58393544D01*
X130432635Y-58393546D01*
X130438612Y-58398233D01*
X130445534Y-58401358D01*
X130447563Y-58402587D01*
X130462910Y-58411340D01*
X130464998Y-58412459D01*
X130471216Y-58416830D01*
X130478295Y-58419590D01*
X130478297Y-58419591D01*
X130506055Y-58430413D01*
X130531019Y-58440146D01*
X130537095Y-58442700D01*
X130588681Y-58465992D01*
X130595609Y-58469120D01*
X130603079Y-58470504D01*
X130605334Y-58471211D01*
X130622318Y-58476049D01*
X130624627Y-58476642D01*
X130631708Y-58479403D01*
X130639237Y-58480394D01*
X130639240Y-58480395D01*
X130695356Y-58487783D01*
X130701870Y-58488815D01*
X130757515Y-58499128D01*
X130757516Y-58499128D01*
X130764983Y-58500512D01*
X130772563Y-58500075D01*
X130772564Y-58500075D01*
X130827469Y-58496909D01*
X130834722Y-58496700D01*
X132390493Y-58496700D01*
X132458614Y-58516702D01*
X132478415Y-58532446D01*
X132627289Y-58677474D01*
X132632085Y-58680679D01*
X132632088Y-58680681D01*
X132702499Y-58727728D01*
X132802031Y-58794233D01*
X132807339Y-58796514D01*
X132807340Y-58796514D01*
X132989822Y-58874914D01*
X132989825Y-58874915D01*
X132995125Y-58877192D01*
X133000754Y-58878466D01*
X133000755Y-58878466D01*
X133194467Y-58922299D01*
X133194473Y-58922300D01*
X133200104Y-58923574D01*
X133205875Y-58923801D01*
X133205877Y-58923801D01*
X133269433Y-58926298D01*
X133410103Y-58931825D01*
X133618088Y-58901669D01*
X133623552Y-58899814D01*
X133623557Y-58899813D01*
X133811624Y-58835973D01*
X133811629Y-58835971D01*
X133817096Y-58834115D01*
X134000460Y-58731426D01*
X134162041Y-58597041D01*
X134296426Y-58435460D01*
X134388666Y-58270754D01*
X134396291Y-58257139D01*
X134396292Y-58257137D01*
X134399115Y-58252096D01*
X134400971Y-58246629D01*
X134400973Y-58246624D01*
X134464813Y-58058557D01*
X134464814Y-58058552D01*
X134466669Y-58053088D01*
X134496825Y-57845103D01*
X134498399Y-57785000D01*
X134479169Y-57575721D01*
X134422123Y-57373451D01*
X134329171Y-57184963D01*
X134245789Y-57073300D01*
X134206880Y-57021195D01*
X134206879Y-57021194D01*
X134203427Y-57016571D01*
X134179544Y-56994494D01*
X134053341Y-56877833D01*
X134053338Y-56877831D01*
X134049101Y-56873914D01*
X133871362Y-56761769D01*
X133676163Y-56683892D01*
X133670506Y-56682767D01*
X133670500Y-56682765D01*
X133475707Y-56644019D01*
X133475705Y-56644019D01*
X133470040Y-56642892D01*
X133464265Y-56642816D01*
X133464261Y-56642816D01*
X133359001Y-56641438D01*
X133259898Y-56640141D01*
X133254201Y-56641120D01*
X133254200Y-56641120D01*
X133058469Y-56674753D01*
X133052772Y-56675732D01*
X132855601Y-56748472D01*
X132674988Y-56855926D01*
X132516981Y-56994494D01*
X132492690Y-57025307D01*
X132434812Y-57066419D01*
X132393742Y-57073300D01*
X131156986Y-57073300D01*
X131088865Y-57053298D01*
X131067891Y-57036395D01*
X129018605Y-54987109D01*
X128984579Y-54924797D01*
X128981700Y-54898014D01*
X128981700Y-52917137D01*
X129001702Y-52849016D01*
X129011749Y-52838562D01*
X130088493Y-52838562D01*
X130097789Y-52850577D01*
X130148994Y-52886431D01*
X130158489Y-52891914D01*
X130355947Y-52983990D01*
X130366239Y-52987736D01*
X130576688Y-53044125D01*
X130587481Y-53046028D01*
X130804525Y-53065017D01*
X130815475Y-53065017D01*
X131032519Y-53046028D01*
X131043312Y-53044125D01*
X131253761Y-52987736D01*
X131264053Y-52983990D01*
X131461511Y-52891914D01*
X131471006Y-52886431D01*
X131523048Y-52849991D01*
X131531424Y-52839512D01*
X131524356Y-52826066D01*
X130822812Y-52124522D01*
X130808868Y-52116908D01*
X130807035Y-52117039D01*
X130800420Y-52121290D01*
X130094923Y-52826787D01*
X130088493Y-52838562D01*
X129011749Y-52838562D01*
X129035428Y-52813925D01*
X129114300Y-52758698D01*
X129276198Y-52596800D01*
X129407523Y-52409249D01*
X129409846Y-52404267D01*
X129409849Y-52404262D01*
X129426081Y-52369451D01*
X129472998Y-52316166D01*
X129541275Y-52296705D01*
X129609235Y-52317247D01*
X129654471Y-52369451D01*
X129670586Y-52404011D01*
X129676069Y-52413506D01*
X129712509Y-52465548D01*
X129722988Y-52473924D01*
X129736434Y-52466856D01*
X130720905Y-51482385D01*
X130783217Y-51448359D01*
X130854032Y-51453424D01*
X130899095Y-51482385D01*
X131884287Y-52467577D01*
X131896062Y-52474007D01*
X131908077Y-52464711D01*
X131943931Y-52413506D01*
X131949414Y-52404011D01*
X131965529Y-52369451D01*
X132012446Y-52316166D01*
X132080723Y-52296705D01*
X132148683Y-52317247D01*
X132193919Y-52369451D01*
X132210151Y-52404262D01*
X132210154Y-52404267D01*
X132212477Y-52409249D01*
X132343802Y-52596800D01*
X132505700Y-52758698D01*
X132510208Y-52761855D01*
X132510211Y-52761857D01*
X132546796Y-52787474D01*
X132693251Y-52890023D01*
X132698233Y-52892346D01*
X132698238Y-52892349D01*
X132894765Y-52983990D01*
X132900757Y-52986784D01*
X132906065Y-52988206D01*
X132906067Y-52988207D01*
X133116598Y-53044619D01*
X133116600Y-53044619D01*
X133121913Y-53046043D01*
X133350000Y-53065998D01*
X133578087Y-53046043D01*
X133583400Y-53044619D01*
X133583402Y-53044619D01*
X133793933Y-52988207D01*
X133793935Y-52988206D01*
X133799243Y-52986784D01*
X133805235Y-52983990D01*
X134001762Y-52892349D01*
X134001767Y-52892346D01*
X134006749Y-52890023D01*
X134153204Y-52787474D01*
X134189789Y-52761857D01*
X134189792Y-52761855D01*
X134194300Y-52758698D01*
X134356198Y-52596800D01*
X134487523Y-52409249D01*
X134489846Y-52404267D01*
X134489849Y-52404262D01*
X134505805Y-52370043D01*
X134552722Y-52316758D01*
X134620999Y-52297297D01*
X134688959Y-52317839D01*
X134734195Y-52370043D01*
X134750151Y-52404262D01*
X134750154Y-52404267D01*
X134752477Y-52409249D01*
X134883802Y-52596800D01*
X135045700Y-52758698D01*
X135050208Y-52761855D01*
X135050211Y-52761857D01*
X135086796Y-52787474D01*
X135233251Y-52890023D01*
X135238233Y-52892346D01*
X135238238Y-52892349D01*
X135434765Y-52983990D01*
X135440757Y-52986784D01*
X135446065Y-52988206D01*
X135446067Y-52988207D01*
X135656598Y-53044619D01*
X135656600Y-53044619D01*
X135661913Y-53046043D01*
X135890000Y-53065998D01*
X136118087Y-53046043D01*
X136123400Y-53044619D01*
X136123402Y-53044619D01*
X136333933Y-52988207D01*
X136333935Y-52988206D01*
X136339243Y-52986784D01*
X136345235Y-52983990D01*
X136541762Y-52892349D01*
X136541767Y-52892346D01*
X136546749Y-52890023D01*
X136693204Y-52787474D01*
X136729789Y-52761857D01*
X136729792Y-52761855D01*
X136734300Y-52758698D01*
X136896198Y-52596800D01*
X137027523Y-52409249D01*
X137029846Y-52404267D01*
X137029849Y-52404262D01*
X137045805Y-52370043D01*
X137092722Y-52316758D01*
X137160999Y-52297297D01*
X137228959Y-52317839D01*
X137274195Y-52370043D01*
X137290151Y-52404262D01*
X137290154Y-52404267D01*
X137292477Y-52409249D01*
X137423802Y-52596800D01*
X137585700Y-52758698D01*
X137590208Y-52761855D01*
X137590211Y-52761857D01*
X137626796Y-52787474D01*
X137773251Y-52890023D01*
X137778233Y-52892346D01*
X137778238Y-52892349D01*
X137974765Y-52983990D01*
X137980757Y-52986784D01*
X137986065Y-52988206D01*
X137986067Y-52988207D01*
X138196598Y-53044619D01*
X138196600Y-53044619D01*
X138201913Y-53046043D01*
X138430000Y-53065998D01*
X138658087Y-53046043D01*
X138663400Y-53044619D01*
X138663402Y-53044619D01*
X138873933Y-52988207D01*
X138873935Y-52988206D01*
X138879243Y-52986784D01*
X138885235Y-52983990D01*
X139081762Y-52892349D01*
X139081767Y-52892346D01*
X139086749Y-52890023D01*
X139233204Y-52787474D01*
X139269789Y-52761857D01*
X139269792Y-52761855D01*
X139274300Y-52758698D01*
X139436198Y-52596800D01*
X139439357Y-52592289D01*
X139442892Y-52588076D01*
X139444026Y-52589027D01*
X139494071Y-52549029D01*
X139564690Y-52541724D01*
X139628049Y-52573758D01*
X139664030Y-52634962D01*
X139667082Y-52652017D01*
X139668255Y-52662816D01*
X139719385Y-52799205D01*
X139806739Y-52915761D01*
X139923295Y-53003115D01*
X140059684Y-53054245D01*
X140121866Y-53061000D01*
X141818134Y-53061000D01*
X141880316Y-53054245D01*
X142016705Y-53003115D01*
X142133261Y-52915761D01*
X142220615Y-52799205D01*
X142271745Y-52662816D01*
X142278500Y-52600634D01*
X142278500Y-50926000D01*
X142298502Y-50857879D01*
X142352158Y-50811386D01*
X142404500Y-50800000D01*
X147194000Y-50800000D01*
X147262121Y-50820002D01*
X147308614Y-50873658D01*
X147320000Y-50926000D01*
X147320000Y-65279000D01*
X147299998Y-65347121D01*
X147246342Y-65393614D01*
X147194000Y-65405000D01*
X130810000Y-65405000D01*
X130810000Y-67029998D01*
X130789998Y-67098119D01*
X130773095Y-67119093D01*
X129162108Y-68730080D01*
X129154295Y-68737190D01*
X129148017Y-68741174D01*
X129142591Y-68746953D01*
X129142590Y-68746953D01*
X129103170Y-68788931D01*
X129100415Y-68791773D01*
X129081453Y-68810735D01*
X129079027Y-68813862D01*
X129078462Y-68814503D01*
X129071494Y-68822661D01*
X129042496Y-68853542D01*
X129033272Y-68870319D01*
X129022425Y-68886832D01*
X129015548Y-68895698D01*
X129015545Y-68895703D01*
X129010687Y-68901966D01*
X128993862Y-68940847D01*
X128988646Y-68951495D01*
X128968235Y-68988622D01*
X128963475Y-69007161D01*
X128957074Y-69025859D01*
X128949468Y-69043435D01*
X128948228Y-69051266D01*
X128942842Y-69085274D01*
X128940435Y-69096897D01*
X128929900Y-69137926D01*
X128929900Y-69157064D01*
X128928349Y-69176774D01*
X128925354Y-69195684D01*
X128926100Y-69203575D01*
X128929341Y-69237861D01*
X128929900Y-69249719D01*
X128929900Y-72720098D01*
X128909898Y-72788219D01*
X128892995Y-72809193D01*
X128689193Y-73012995D01*
X128626881Y-73047021D01*
X128600098Y-73049900D01*
X124535681Y-73049900D01*
X124525132Y-73049403D01*
X124517872Y-73047780D01*
X124509946Y-73048029D01*
X124509945Y-73048029D01*
X124452387Y-73049838D01*
X124448429Y-73049900D01*
X124421617Y-73049900D01*
X124417691Y-73050396D01*
X124416835Y-73050450D01*
X124406145Y-73051292D01*
X124383094Y-73052016D01*
X124371721Y-73052373D01*
X124371720Y-73052373D01*
X124363801Y-73052622D01*
X124356189Y-73054833D01*
X124356185Y-73054834D01*
X124345408Y-73057964D01*
X124326055Y-73061972D01*
X124307068Y-73064371D01*
X124267686Y-73079964D01*
X124256475Y-73083803D01*
X124215775Y-73095627D01*
X124208955Y-73099660D01*
X124208949Y-73099663D01*
X124199297Y-73105372D01*
X124181550Y-73114067D01*
X124163746Y-73121116D01*
X124157326Y-73125780D01*
X124157323Y-73125782D01*
X124129471Y-73146017D01*
X124119566Y-73152525D01*
X124083094Y-73174094D01*
X124069562Y-73187626D01*
X124054530Y-73200465D01*
X124039038Y-73211721D01*
X124033985Y-73217829D01*
X124012031Y-73244367D01*
X124004041Y-73253147D01*
X123913993Y-73343195D01*
X123851681Y-73377221D01*
X123824898Y-73380100D01*
X123728840Y-73380100D01*
X123722387Y-73381472D01*
X123722383Y-73381472D01*
X123638825Y-73399233D01*
X123540723Y-73420085D01*
X123534694Y-73422769D01*
X123534692Y-73422770D01*
X123371060Y-73495624D01*
X123371058Y-73495625D01*
X123365030Y-73498309D01*
X123359689Y-73502189D01*
X123359688Y-73502190D01*
X123315905Y-73534000D01*
X123209440Y-73611351D01*
X123205026Y-73616253D01*
X123205024Y-73616255D01*
X123203172Y-73618312D01*
X123201803Y-73619155D01*
X123200113Y-73620677D01*
X123199835Y-73620368D01*
X123142725Y-73655551D01*
X123109537Y-73660000D01*
X122021100Y-73660000D01*
X121952979Y-73639998D01*
X121906486Y-73586342D01*
X121895100Y-73534000D01*
X121895100Y-71223079D01*
X121915102Y-71154958D01*
X121927464Y-71138769D01*
X122024828Y-71030635D01*
X122024829Y-71030634D01*
X122029247Y-71025727D01*
X122125407Y-70859173D01*
X122166803Y-70731769D01*
X122182797Y-70682545D01*
X122182797Y-70682544D01*
X122184837Y-70676266D01*
X122194431Y-70584991D01*
X122204250Y-70491565D01*
X122204940Y-70485000D01*
X122188353Y-70327190D01*
X122185527Y-70300298D01*
X122185527Y-70300297D01*
X122184837Y-70293734D01*
X122169903Y-70247770D01*
X122127449Y-70117112D01*
X122125407Y-70110827D01*
X122029247Y-69944273D01*
X122017247Y-69930945D01*
X121904982Y-69806262D01*
X121904981Y-69806261D01*
X121900560Y-69801351D01*
X121895218Y-69797470D01*
X121895216Y-69797468D01*
X121750312Y-69692190D01*
X121750311Y-69692189D01*
X121744970Y-69688309D01*
X121738942Y-69685625D01*
X121738940Y-69685624D01*
X121575308Y-69612770D01*
X121575306Y-69612769D01*
X121569277Y-69610085D01*
X121475219Y-69590093D01*
X121387617Y-69571472D01*
X121387613Y-69571472D01*
X121381160Y-69570100D01*
X121188840Y-69570100D01*
X121182387Y-69571472D01*
X121182383Y-69571472D01*
X121094781Y-69590093D01*
X121000723Y-69610085D01*
X120994694Y-69612769D01*
X120994692Y-69612770D01*
X120831060Y-69685624D01*
X120831058Y-69685625D01*
X120825030Y-69688309D01*
X120819689Y-69692189D01*
X120819688Y-69692190D01*
X120674784Y-69797468D01*
X120674782Y-69797470D01*
X120669440Y-69801351D01*
X120665019Y-69806261D01*
X120665018Y-69806262D01*
X120552754Y-69930945D01*
X120540753Y-69944273D01*
X120444593Y-70110827D01*
X120442551Y-70117112D01*
X120429459Y-70157405D01*
X120389386Y-70216011D01*
X120323989Y-70243648D01*
X120283430Y-70241716D01*
X120142166Y-70211690D01*
X120111160Y-70205100D01*
X119918840Y-70205100D01*
X119912387Y-70206472D01*
X119912383Y-70206472D01*
X119824781Y-70225093D01*
X119730723Y-70245085D01*
X119724694Y-70247769D01*
X119724692Y-70247770D01*
X119561060Y-70320624D01*
X119561058Y-70320625D01*
X119555030Y-70323309D01*
X119549689Y-70327189D01*
X119549688Y-70327190D01*
X119404784Y-70432468D01*
X119404782Y-70432470D01*
X119399440Y-70436351D01*
X119395019Y-70441261D01*
X119395018Y-70441262D01*
X119361548Y-70478435D01*
X119270753Y-70579273D01*
X119174593Y-70745827D01*
X119115163Y-70928734D01*
X119114473Y-70935297D01*
X119114473Y-70935298D01*
X119104969Y-71025727D01*
X119095060Y-71120000D01*
X119115163Y-71311266D01*
X119117203Y-71317544D01*
X119117203Y-71317545D01*
X119136675Y-71377474D01*
X119174593Y-71494173D01*
X119177896Y-71499895D01*
X119177897Y-71499896D01*
X119204354Y-71545721D01*
X119270753Y-71660727D01*
X119275171Y-71665634D01*
X119275172Y-71665635D01*
X119372536Y-71773769D01*
X119403254Y-71837776D01*
X119404900Y-71858079D01*
X119404900Y-73534000D01*
X119384898Y-73602121D01*
X119331242Y-73648614D01*
X119278900Y-73660000D01*
X118236000Y-73660000D01*
X118167879Y-73639998D01*
X118121386Y-73586342D01*
X118110000Y-73534000D01*
X118110000Y-69114669D01*
X122627001Y-69114669D01*
X122627371Y-69121490D01*
X122632895Y-69172352D01*
X122636521Y-69187604D01*
X122681676Y-69308054D01*
X122690214Y-69323649D01*
X122766715Y-69425724D01*
X122779276Y-69438285D01*
X122881351Y-69514786D01*
X122896946Y-69523324D01*
X123017394Y-69568478D01*
X123032649Y-69572105D01*
X123083514Y-69577631D01*
X123090328Y-69578000D01*
X124312885Y-69578000D01*
X124328124Y-69573525D01*
X124329329Y-69572135D01*
X124331000Y-69564452D01*
X124331000Y-69559884D01*
X124839000Y-69559884D01*
X124843475Y-69575123D01*
X124844865Y-69576328D01*
X124852548Y-69577999D01*
X126079669Y-69577999D01*
X126086490Y-69577629D01*
X126137352Y-69572105D01*
X126152604Y-69568479D01*
X126273054Y-69523324D01*
X126288649Y-69514786D01*
X126390724Y-69438285D01*
X126403285Y-69425724D01*
X126479786Y-69323649D01*
X126488324Y-69308054D01*
X126533478Y-69187606D01*
X126537105Y-69172351D01*
X126542631Y-69121486D01*
X126543000Y-69114672D01*
X126543000Y-67892115D01*
X126538525Y-67876876D01*
X126537135Y-67875671D01*
X126529452Y-67874000D01*
X124857115Y-67874000D01*
X124841876Y-67878475D01*
X124840671Y-67879865D01*
X124839000Y-67887548D01*
X124839000Y-69559884D01*
X124331000Y-69559884D01*
X124331000Y-67892115D01*
X124326525Y-67876876D01*
X124325135Y-67875671D01*
X124317452Y-67874000D01*
X122645116Y-67874000D01*
X122629877Y-67878475D01*
X122628672Y-67879865D01*
X122627001Y-67887548D01*
X122627001Y-69114669D01*
X118110000Y-69114669D01*
X118110000Y-67347885D01*
X122627000Y-67347885D01*
X122631475Y-67363124D01*
X122632865Y-67364329D01*
X122640548Y-67366000D01*
X124312885Y-67366000D01*
X124328124Y-67361525D01*
X124329329Y-67360135D01*
X124331000Y-67352452D01*
X124331000Y-67347885D01*
X124839000Y-67347885D01*
X124843475Y-67363124D01*
X124844865Y-67364329D01*
X124852548Y-67366000D01*
X126524884Y-67366000D01*
X126540123Y-67361525D01*
X126541328Y-67360135D01*
X126542999Y-67352452D01*
X126542999Y-66125331D01*
X126542629Y-66118510D01*
X126537105Y-66067648D01*
X126533479Y-66052396D01*
X126488324Y-65931946D01*
X126479786Y-65916351D01*
X126403285Y-65814276D01*
X126390724Y-65801715D01*
X126288649Y-65725214D01*
X126273054Y-65716676D01*
X126152606Y-65671522D01*
X126137351Y-65667895D01*
X126086486Y-65662369D01*
X126079672Y-65662000D01*
X124857115Y-65662000D01*
X124841876Y-65666475D01*
X124840671Y-65667865D01*
X124839000Y-65675548D01*
X124839000Y-67347885D01*
X124331000Y-67347885D01*
X124331000Y-65680116D01*
X124326525Y-65664877D01*
X124325135Y-65663672D01*
X124317452Y-65662001D01*
X123090331Y-65662001D01*
X123083510Y-65662371D01*
X123032648Y-65667895D01*
X123017396Y-65671521D01*
X122896946Y-65716676D01*
X122881351Y-65725214D01*
X122779276Y-65801715D01*
X122766715Y-65814276D01*
X122690214Y-65916351D01*
X122681676Y-65931946D01*
X122636522Y-66052394D01*
X122632895Y-66067649D01*
X122627369Y-66118514D01*
X122627000Y-66125328D01*
X122627000Y-67347885D01*
X118110000Y-67347885D01*
X118110000Y-56792586D01*
X118130002Y-56724465D01*
X118142954Y-56707624D01*
X118181861Y-56665015D01*
X118181862Y-56665013D01*
X118183930Y-56662749D01*
X118430702Y-56332881D01*
X118644108Y-55980507D01*
X118645435Y-55977737D01*
X118645440Y-55977728D01*
X118820776Y-55611772D01*
X118822109Y-55608990D01*
X118828044Y-55592683D01*
X118961956Y-55224764D01*
X118961957Y-55224761D01*
X118963007Y-55221876D01*
X118964524Y-55215970D01*
X119064694Y-54825830D01*
X119064695Y-54825824D01*
X119065456Y-54822861D01*
X119128480Y-54415753D01*
X119151476Y-54004437D01*
X119149009Y-53945563D01*
X119134354Y-53595921D01*
X119134225Y-53592841D01*
X119076892Y-53184892D01*
X118980023Y-52784485D01*
X118844544Y-52395442D01*
X118757801Y-52207713D01*
X118673040Y-52024273D01*
X118673035Y-52024263D01*
X118671747Y-52021476D01*
X118517153Y-51757975D01*
X118464841Y-51668811D01*
X118464838Y-51668806D01*
X118463283Y-51666156D01*
X118221140Y-51332876D01*
X118199558Y-51308567D01*
X118141777Y-51243487D01*
X118111508Y-51179266D01*
X118110000Y-51159832D01*
X118110000Y-50926000D01*
X118130002Y-50857879D01*
X118183658Y-50811386D01*
X118236000Y-50800000D01*
X127097520Y-50800000D01*
X127165641Y-50820002D01*
G37*
G04 #@! TD.AperFunction*
M02*
