G04 #@! TF.GenerationSoftware,KiCad,Pcbnew,6.0.7-f9a2dced07~116~ubuntu20.04.1*
G04 #@! TF.CreationDate,2022-08-17T23:21:15-04:00*
G04 #@! TF.ProjectId,mmwave,6d6d7761-7665-42e6-9b69-6361645f7063,B*
G04 #@! TF.SameCoordinates,Original*
G04 #@! TF.FileFunction,Copper,L1,Top*
G04 #@! TF.FilePolarity,Positive*
%FSLAX46Y46*%
G04 Gerber Fmt 4.6, Leading zero omitted, Abs format (unit mm)*
G04 Created by KiCad (PCBNEW 6.0.7-f9a2dced07~116~ubuntu20.04.1) date 2022-08-17 23:21:15*
%MOMM*%
%LPD*%
G01*
G04 APERTURE LIST*
G04 #@! TA.AperFunction,ComponentPad*
%ADD10R,1.600000X1.600000*%
G04 #@! TD*
G04 #@! TA.AperFunction,ComponentPad*
%ADD11C,1.600000*%
G04 #@! TD*
G04 #@! TA.AperFunction,SMDPad,CuDef*
%ADD12R,1.150000X0.300000*%
G04 #@! TD*
G04 #@! TA.AperFunction,SMDPad,CuDef*
%ADD13R,1.150000X0.600000*%
G04 #@! TD*
G04 #@! TA.AperFunction,ComponentPad*
%ADD14O,2.000000X1.000000*%
G04 #@! TD*
G04 #@! TA.AperFunction,ComponentPad*
%ADD15O,2.100000X1.050000*%
G04 #@! TD*
G04 #@! TA.AperFunction,ComponentPad*
%ADD16C,2.946400*%
G04 #@! TD*
G04 #@! TA.AperFunction,SMDPad,CuDef*
%ADD17R,1.219200X2.235200*%
G04 #@! TD*
G04 #@! TA.AperFunction,SMDPad,CuDef*
%ADD18R,3.600000X2.200000*%
G04 #@! TD*
G04 #@! TA.AperFunction,SMDPad,CuDef*
%ADD19R,1.300000X1.500000*%
G04 #@! TD*
G04 #@! TA.AperFunction,SMDPad,CuDef*
%ADD20R,1.000000X1.100000*%
G04 #@! TD*
G04 #@! TA.AperFunction,SMDPad,CuDef*
%ADD21R,1.100000X1.000000*%
G04 #@! TD*
G04 #@! TA.AperFunction,SMDPad,CuDef*
%ADD22R,1.270000X4.826000*%
G04 #@! TD*
G04 #@! TA.AperFunction,SMDPad,CuDef*
%ADD23R,1.500000X1.300000*%
G04 #@! TD*
G04 #@! TA.AperFunction,SMDPad,CuDef*
%ADD24R,0.900000X1.500000*%
G04 #@! TD*
G04 #@! TA.AperFunction,HeatsinkPad*
%ADD25R,2.900000X2.900000*%
G04 #@! TD*
G04 #@! TA.AperFunction,SMDPad,CuDef*
%ADD26R,0.800000X1.100000*%
G04 #@! TD*
G04 #@! TA.AperFunction,SMDPad,CuDef*
%ADD27R,1.000000X0.300000*%
G04 #@! TD*
G04 #@! TA.AperFunction,ComponentPad*
%ADD28O,1.270000X2.540000*%
G04 #@! TD*
G04 #@! TA.AperFunction,ComponentPad*
%ADD29R,1.700000X1.200000*%
G04 #@! TD*
G04 #@! TA.AperFunction,ComponentPad*
%ADD30O,1.700000X1.200000*%
G04 #@! TD*
G04 #@! TA.AperFunction,ViaPad*
%ADD31C,1.270000*%
G04 #@! TD*
G04 #@! TA.AperFunction,ViaPad*
%ADD32C,0.812800*%
G04 #@! TD*
G04 #@! TA.AperFunction,Conductor*
%ADD33C,0.406400*%
G04 #@! TD*
G04 #@! TA.AperFunction,Conductor*
%ADD34C,0.203200*%
G04 #@! TD*
G04 APERTURE END LIST*
D10*
X113030000Y-81915000D03*
D11*
X115570000Y-81915000D03*
X113030000Y-84455000D03*
X115570000Y-84455000D03*
X113030000Y-86995000D03*
X115570000Y-86995000D03*
D12*
X151824997Y-74910000D03*
X151824997Y-73910000D03*
X151824997Y-73410000D03*
X151824997Y-72410000D03*
X151824997Y-71910000D03*
X151824997Y-72910000D03*
X151824997Y-74410000D03*
X151824997Y-75410000D03*
D13*
X151824997Y-76860000D03*
X151824997Y-70460000D03*
D14*
X156579997Y-69340000D03*
X156579997Y-77980000D03*
D15*
X152399997Y-69340000D03*
X152399997Y-77980000D03*
D13*
X151824997Y-76060000D03*
X151824997Y-71260000D03*
D16*
X154305000Y-93345000D03*
D17*
X139293600Y-65963800D03*
X141605000Y-65963800D03*
D18*
X141605000Y-59766000D03*
D17*
X143916400Y-65963800D03*
D19*
X145095000Y-73279000D03*
X143195000Y-73279000D03*
D16*
X114935000Y-53975000D03*
D20*
X121285000Y-82130000D03*
X121285000Y-80430000D03*
D21*
X133770000Y-77470000D03*
X135470000Y-77470000D03*
D16*
X114935000Y-93345000D03*
D22*
X132080000Y-85852000D03*
X137160000Y-85852000D03*
D23*
X118745000Y-81595000D03*
X118745000Y-79695000D03*
D20*
X123190000Y-82130000D03*
X123190000Y-80430000D03*
D23*
X125730000Y-83500000D03*
X125730000Y-81600000D03*
D21*
X128690000Y-57785000D03*
X130390000Y-57785000D03*
D24*
X118385000Y-77330000D03*
X119885000Y-77330000D03*
X121385000Y-77330000D03*
X122885000Y-77330000D03*
X124385000Y-77330000D03*
X125885000Y-77330000D03*
X127385000Y-77330000D03*
X128885000Y-77330000D03*
X130385000Y-77330000D03*
X130385000Y-59830000D03*
X128885000Y-59830000D03*
X127385000Y-59830000D03*
X125885000Y-59830000D03*
X124385000Y-59830000D03*
X122885000Y-59830000D03*
X121385000Y-59830000D03*
X119885000Y-59830000D03*
X118385000Y-59830000D03*
D25*
X124585000Y-67620000D03*
D20*
X154940000Y-65190000D03*
X154940000Y-66890000D03*
D16*
X154305000Y-53975000D03*
D26*
X148590000Y-70120000D03*
X148590000Y-72120000D03*
D27*
X155255000Y-84855000D03*
X155255000Y-84055000D03*
X153355000Y-84055000D03*
X153355000Y-84855000D03*
D21*
X143471000Y-77343000D03*
X141771000Y-77343000D03*
D19*
X145095000Y-69850000D03*
X143195000Y-69850000D03*
D10*
X149225000Y-66675000D03*
D11*
X149225000Y-64135000D03*
X149225000Y-61595000D03*
X149225000Y-59055000D03*
D19*
X138750000Y-69850000D03*
X140650000Y-69850000D03*
D20*
X143510000Y-85305000D03*
X143510000Y-83605000D03*
X139065000Y-75477000D03*
X139065000Y-77177000D03*
X147955000Y-77050000D03*
X147955000Y-75350000D03*
D28*
X132080000Y-85725000D03*
X134620000Y-86995000D03*
X137160000Y-85725000D03*
D10*
X140970000Y-51752500D03*
D11*
X138430000Y-51752500D03*
X135890000Y-51752500D03*
X133350000Y-51752500D03*
X130810000Y-51752500D03*
X128270000Y-51752500D03*
D29*
X134620000Y-72660000D03*
D30*
X134620000Y-74660000D03*
D31*
X146050000Y-64135000D03*
X146050000Y-60325000D03*
X130175000Y-79375000D03*
X121285000Y-85725000D03*
X127000000Y-57785000D03*
X137160000Y-60325000D03*
X137160000Y-64135000D03*
X125730000Y-85725000D03*
X154940000Y-63500000D03*
D32*
X122479300Y-78740000D03*
D31*
X143510000Y-67945000D03*
X131445000Y-72390000D03*
D32*
X120015000Y-71120000D03*
X121285000Y-70485000D03*
X118110000Y-83185000D03*
X119380000Y-74930000D03*
X128270000Y-80645000D03*
X134620000Y-80645000D03*
X132715000Y-75565000D03*
X128174300Y-75565000D03*
X134620000Y-66675000D03*
X142240000Y-75819000D03*
X154940000Y-85725000D03*
X123825000Y-74295000D03*
X135509000Y-67945000D03*
X144145000Y-80010000D03*
X125095000Y-74930000D03*
X154940000Y-83185000D03*
D31*
X140650000Y-71755000D03*
X133350000Y-70485000D03*
X133350000Y-57785000D03*
X149860000Y-75900100D03*
X148590000Y-73660000D03*
D33*
X149645000Y-77470000D02*
X150135000Y-77470000D01*
X150645000Y-77980000D02*
X150135000Y-77470000D01*
D34*
X142455000Y-85305000D02*
X142240000Y-85090000D01*
D33*
X130385000Y-79165000D02*
X130385000Y-77330000D01*
X148590000Y-70120000D02*
X147590000Y-70120000D01*
X149225000Y-77050000D02*
X149645000Y-77470000D01*
D34*
X142455000Y-85305000D02*
X143510000Y-85305000D01*
D33*
X154940000Y-65190000D02*
X154940000Y-63500000D01*
X151825000Y-76860000D02*
X150745000Y-76860000D01*
X121285000Y-82130000D02*
X120230000Y-82130000D01*
X119695000Y-81595000D02*
X118745000Y-81595000D01*
X152399997Y-77980000D02*
X150645000Y-77980000D01*
X151824997Y-70460000D02*
X150652500Y-70460000D01*
D34*
X144565000Y-85305000D02*
X143510000Y-85305000D01*
D33*
X147590000Y-70120000D02*
X147320000Y-69850000D01*
D34*
X153355000Y-84855000D02*
X145015000Y-84855000D01*
D33*
X156579997Y-77980000D02*
X152399997Y-77980000D01*
D34*
X145015000Y-84855000D02*
X144565000Y-85305000D01*
D33*
X128690000Y-57785000D02*
X127000000Y-57785000D01*
D34*
X142240000Y-85090000D02*
X137160000Y-85090000D01*
D33*
X150745000Y-76860000D02*
X150135000Y-77470000D01*
X150312500Y-70120000D02*
X148590000Y-70120000D01*
X125730000Y-83500000D02*
X125730000Y-85725000D01*
X150652500Y-70460000D02*
X150312500Y-70120000D01*
X130175000Y-79375000D02*
X130385000Y-79165000D01*
X152399997Y-69340000D02*
X151092500Y-69340000D01*
X147955000Y-77050000D02*
X149225000Y-77050000D01*
X147320000Y-69850000D02*
X145095000Y-69850000D01*
X120230000Y-82130000D02*
X119695000Y-81595000D01*
X121285000Y-82130000D02*
X121285000Y-85725000D01*
X151092500Y-69340000D02*
X150312500Y-70120000D01*
D34*
X125730000Y-80010000D02*
X124460000Y-78740000D01*
X119885000Y-77975000D02*
X119885000Y-77330000D01*
X124775000Y-81600000D02*
X125730000Y-81600000D01*
X123190000Y-82130000D02*
X124245000Y-82130000D01*
X125730000Y-81600000D02*
X125730000Y-80010000D01*
X124460000Y-78740000D02*
X120650000Y-78740000D01*
X124245000Y-82130000D02*
X124775000Y-81600000D01*
X120650000Y-78740000D02*
X119885000Y-77975000D01*
D33*
X132080000Y-78740000D02*
X132207000Y-78867000D01*
X137033000Y-78359000D02*
X136525000Y-78867000D01*
X137033000Y-78359000D02*
X137033000Y-77470000D01*
X132080000Y-76835000D02*
X131445000Y-76200000D01*
X118385000Y-74020000D02*
X118385000Y-77330000D01*
X139065000Y-77177000D02*
X138215000Y-77177000D01*
X143916400Y-65963800D02*
X143916400Y-67538600D01*
X118385000Y-78380000D02*
X118745000Y-78740000D01*
D34*
X153355000Y-84055000D02*
X145015000Y-84055000D01*
D33*
X118745000Y-79695000D02*
X113980000Y-79695000D01*
X139915000Y-77177000D02*
X140081000Y-77343000D01*
X123190000Y-80430000D02*
X121285000Y-80430000D01*
X113030000Y-80645000D02*
X113030000Y-81915000D01*
X141771000Y-79541000D02*
X143510000Y-81280000D01*
X119597500Y-79695000D02*
X118745000Y-79695000D01*
D34*
X145015000Y-84055000D02*
X144565000Y-83605000D01*
D33*
X120015000Y-72390000D02*
X118385000Y-74020000D01*
D34*
X144565000Y-83605000D02*
X143510000Y-83605000D01*
D33*
X121285000Y-80430000D02*
X120332500Y-80430000D01*
X118385000Y-77330000D02*
X118385000Y-78380000D01*
X118745000Y-78740000D02*
X118745000Y-79695000D01*
X132080000Y-85090000D02*
X132080000Y-78740000D01*
X143195000Y-69850000D02*
X143195000Y-68260000D01*
X140081000Y-77343000D02*
X141771000Y-77343000D01*
X132080000Y-78740000D02*
X132080000Y-76835000D01*
X132207000Y-78867000D02*
X136525000Y-78867000D01*
X143195000Y-68260000D02*
X143510000Y-67945000D01*
X137922000Y-77470000D02*
X137033000Y-77470000D01*
X138215000Y-77177000D02*
X137922000Y-77470000D01*
X143510000Y-81280000D02*
X143510000Y-83605000D01*
X137033000Y-77470000D02*
X135470000Y-77470000D01*
X139065000Y-77177000D02*
X139915000Y-77177000D01*
X131445000Y-76200000D02*
X131445000Y-72390000D01*
X120332500Y-80430000D02*
X119597500Y-79695000D01*
X131445000Y-72390000D02*
X120015000Y-72390000D01*
X143916400Y-67538600D02*
X143510000Y-67945000D01*
X113980000Y-79695000D02*
X113030000Y-80645000D01*
X141771000Y-77343000D02*
X141771000Y-79541000D01*
D34*
X122237500Y-62230000D02*
X126460000Y-62230000D01*
X127385000Y-61305000D02*
X127385000Y-59830000D01*
X120015000Y-64452500D02*
X122237500Y-62230000D01*
X120015000Y-71120000D02*
X120015000Y-64452500D01*
X126460000Y-62230000D02*
X127385000Y-61305000D01*
X127635000Y-62865000D02*
X128885000Y-61615000D01*
X118110000Y-84455000D02*
X116840000Y-85725000D01*
X123190000Y-62865000D02*
X127635000Y-62865000D01*
X118110000Y-83185000D02*
X118110000Y-84455000D01*
X121285000Y-64770000D02*
X123190000Y-62865000D01*
X128885000Y-61615000D02*
X128885000Y-59830000D01*
X114300000Y-85725000D02*
X113030000Y-86995000D01*
X121285000Y-70485000D02*
X121285000Y-64770000D01*
X116840000Y-85725000D02*
X114300000Y-85725000D01*
X120726200Y-73583800D02*
X127558800Y-73583800D01*
X128885000Y-74910000D02*
X128885000Y-77330000D01*
X119380000Y-74930000D02*
X120726200Y-73583800D01*
X127558800Y-73583800D02*
X128885000Y-74910000D01*
X125885000Y-78267300D02*
X125885000Y-77330000D01*
X134620000Y-80645000D02*
X134620000Y-87630000D01*
X128262700Y-80645000D02*
X125885000Y-78267300D01*
X128270000Y-80645000D02*
X128262700Y-80645000D01*
X139065000Y-55880000D02*
X140970000Y-53975000D01*
X125885000Y-56995000D02*
X127000000Y-55880000D01*
X125885000Y-59830000D02*
X125885000Y-56995000D01*
X140970000Y-53975000D02*
X140970000Y-51752500D01*
X127000000Y-55880000D02*
X139065000Y-55880000D01*
X125730000Y-55245000D02*
X137160000Y-55245000D01*
X138430000Y-53975000D02*
X138430000Y-51752500D01*
X124385000Y-56590000D02*
X125730000Y-55245000D01*
X137160000Y-55245000D02*
X138430000Y-53975000D01*
X124385000Y-59830000D02*
X124385000Y-56590000D01*
X133350000Y-53340000D02*
X133350000Y-51752500D01*
X132715000Y-53975000D02*
X133350000Y-53340000D01*
X119885000Y-59830000D02*
X119885000Y-57280000D01*
X119885000Y-57280000D02*
X123190000Y-53975000D01*
X123190000Y-53975000D02*
X132715000Y-53975000D01*
X151825000Y-74910000D02*
X148885000Y-74910000D01*
X148445000Y-75350000D02*
X148865000Y-74930000D01*
X147955000Y-75350000D02*
X148445000Y-75350000D01*
X153515000Y-71910000D02*
X154940000Y-70485000D01*
X151825000Y-71910000D02*
X153515000Y-71910000D01*
X154940000Y-70485000D02*
X154940000Y-66890000D01*
X133223000Y-75565000D02*
X133770000Y-76112000D01*
X127385000Y-76354300D02*
X127385000Y-77330000D01*
X133770000Y-76112000D02*
X133770000Y-77470000D01*
X128174300Y-75565000D02*
X127385000Y-76354300D01*
X132715000Y-75565000D02*
X133223000Y-75565000D01*
X130385000Y-59830000D02*
X130385000Y-57790000D01*
X130385000Y-57790000D02*
X130390000Y-57785000D01*
X122885000Y-75235000D02*
X122885000Y-77330000D01*
X140628000Y-75477000D02*
X139065000Y-75477000D01*
X139065000Y-75477000D02*
X139065000Y-73787000D01*
X134620000Y-57785000D02*
X136118600Y-56286400D01*
X134620000Y-69342000D02*
X134620000Y-57785000D01*
X155255000Y-84855000D02*
X155255000Y-85410000D01*
X147955000Y-57150000D02*
X147955000Y-60325000D01*
X147955000Y-60325000D02*
X149225000Y-61595000D01*
X136118600Y-56286400D02*
X147091400Y-56286400D01*
X140970000Y-75819000D02*
X142240000Y-75819000D01*
X140970000Y-75819000D02*
X140628000Y-75477000D01*
X139065000Y-73787000D02*
X134620000Y-69342000D01*
X155255000Y-85410000D02*
X154940000Y-85725000D01*
X147091400Y-56286400D02*
X147955000Y-57150000D01*
X123825000Y-74295000D02*
X122885000Y-75235000D01*
X135509000Y-69469000D02*
X135509000Y-58166000D01*
X155255000Y-84055000D02*
X155255000Y-83500000D01*
X147320000Y-62230000D02*
X149225000Y-64135000D01*
X147320000Y-57785000D02*
X147320000Y-62230000D01*
X124385000Y-75640000D02*
X124385000Y-77330000D01*
X143471000Y-77343000D02*
X143471000Y-75653000D01*
X144145000Y-80010000D02*
X143471000Y-79336000D01*
X140424600Y-74384600D02*
X135509000Y-69469000D01*
X142202600Y-74384600D02*
X140424600Y-74384600D01*
X143471000Y-75653000D02*
X142202600Y-74384600D01*
X146685000Y-57150000D02*
X147320000Y-57785000D01*
X136525000Y-57150000D02*
X146685000Y-57150000D01*
X135509000Y-58166000D02*
X136525000Y-57150000D01*
X155255000Y-83500000D02*
X154940000Y-83185000D01*
X143471000Y-79336000D02*
X143471000Y-77343000D01*
X125095000Y-74930000D02*
X124385000Y-75640000D01*
X134620000Y-54610000D02*
X135890000Y-53340000D01*
X122885000Y-56185000D02*
X124460000Y-54610000D01*
X124460000Y-54610000D02*
X134620000Y-54610000D01*
X122885000Y-59830000D02*
X122885000Y-56185000D01*
X135890000Y-53340000D02*
X135890000Y-51752500D01*
D33*
X141605000Y-65963800D02*
X141605000Y-59766000D01*
X140650000Y-71755000D02*
X140650000Y-69850000D01*
X141605000Y-67945000D02*
X141605000Y-65963800D01*
X140650000Y-69850000D02*
X140650000Y-68900000D01*
X141859000Y-73279000D02*
X143195000Y-73279000D01*
X140650000Y-72070000D02*
X141859000Y-73279000D01*
X140650000Y-71755000D02*
X140650000Y-72070000D01*
X133350000Y-57785000D02*
X133350000Y-70485000D01*
X140650000Y-68900000D02*
X141605000Y-67945000D01*
X149860000Y-75900100D02*
X150856297Y-75900100D01*
X148590000Y-72120000D02*
X148590000Y-73660000D01*
X148590000Y-73660000D02*
X147320000Y-73660000D01*
X150856297Y-75900100D02*
X151016197Y-76060000D01*
X148590000Y-72120000D02*
X149495000Y-72120000D01*
X151016197Y-76060000D02*
X151825000Y-76060000D01*
X149495000Y-72120000D02*
X150355000Y-71260000D01*
X150355000Y-71260000D02*
X151825000Y-71260000D01*
X146939000Y-73279000D02*
X145095000Y-73279000D01*
X147320000Y-73660000D02*
X146939000Y-73279000D01*
G04 #@! TA.AperFunction,Conductor*
G36*
X146473119Y-57805002D02*
G01*
X146494094Y-57821905D01*
X146648096Y-57975908D01*
X146682121Y-58038220D01*
X146685000Y-58065003D01*
X146685000Y-70994000D01*
X146664998Y-71062121D01*
X146611342Y-71108614D01*
X146559000Y-71120000D01*
X146242057Y-71120000D01*
X146173936Y-71099998D01*
X146127443Y-71046342D01*
X146117339Y-70976068D01*
X146141231Y-70918435D01*
X146189786Y-70853648D01*
X146198324Y-70838054D01*
X146243478Y-70717606D01*
X146247105Y-70702351D01*
X146252631Y-70651486D01*
X146253000Y-70644672D01*
X146253000Y-70122115D01*
X146248525Y-70106876D01*
X146247135Y-70105671D01*
X146239452Y-70104000D01*
X144967000Y-70104000D01*
X144898879Y-70083998D01*
X144852386Y-70030342D01*
X144841000Y-69978000D01*
X144841000Y-69577885D01*
X145349000Y-69577885D01*
X145353475Y-69593124D01*
X145354865Y-69594329D01*
X145362548Y-69596000D01*
X146234884Y-69596000D01*
X146250123Y-69591525D01*
X146251328Y-69590135D01*
X146252999Y-69582452D01*
X146252999Y-69055331D01*
X146252629Y-69048510D01*
X146247105Y-68997648D01*
X146243479Y-68982396D01*
X146198324Y-68861946D01*
X146189786Y-68846351D01*
X146113285Y-68744276D01*
X146100724Y-68731715D01*
X145998649Y-68655214D01*
X145983054Y-68646676D01*
X145862606Y-68601522D01*
X145847351Y-68597895D01*
X145796486Y-68592369D01*
X145789672Y-68592000D01*
X145367115Y-68592000D01*
X145351876Y-68596475D01*
X145350671Y-68597865D01*
X145349000Y-68605548D01*
X145349000Y-69577885D01*
X144841000Y-69577885D01*
X144841000Y-68610116D01*
X144836525Y-68594877D01*
X144835135Y-68593672D01*
X144827452Y-68592001D01*
X144672460Y-68592001D01*
X144604339Y-68571999D01*
X144557846Y-68518343D01*
X144547742Y-68448069D01*
X144557063Y-68415761D01*
X144559115Y-68412096D01*
X144560971Y-68406629D01*
X144560973Y-68406624D01*
X144624813Y-68218557D01*
X144624814Y-68218552D01*
X144626669Y-68213088D01*
X144656825Y-68005103D01*
X144658399Y-67945000D01*
X144639169Y-67735721D01*
X144637603Y-67730170D01*
X144637602Y-67730162D01*
X144631430Y-67708278D01*
X144632192Y-67637285D01*
X144671214Y-67577974D01*
X144708470Y-67556096D01*
X144764297Y-67535167D01*
X144772705Y-67532015D01*
X144889261Y-67444661D01*
X144976615Y-67328105D01*
X145027745Y-67191716D01*
X145034500Y-67129534D01*
X145034500Y-64798066D01*
X145027745Y-64735884D01*
X144976615Y-64599495D01*
X144889261Y-64482939D01*
X144772705Y-64395585D01*
X144636316Y-64344455D01*
X144574134Y-64337700D01*
X143258666Y-64337700D01*
X143196484Y-64344455D01*
X143060095Y-64395585D01*
X142943539Y-64482939D01*
X142938158Y-64490119D01*
X142861526Y-64592369D01*
X142804667Y-64634884D01*
X142733849Y-64639910D01*
X142671555Y-64605850D01*
X142659874Y-64592369D01*
X142583242Y-64490119D01*
X142577861Y-64482939D01*
X142461305Y-64395585D01*
X142447364Y-64390359D01*
X142398470Y-64372029D01*
X142341706Y-64329387D01*
X142317006Y-64262826D01*
X142316700Y-64254047D01*
X142316700Y-61500500D01*
X142336702Y-61432379D01*
X142390358Y-61385886D01*
X142442700Y-61374500D01*
X143453134Y-61374500D01*
X143515316Y-61367745D01*
X143651705Y-61316615D01*
X143768261Y-61229261D01*
X143855615Y-61112705D01*
X143906745Y-60976316D01*
X143913500Y-60914134D01*
X143913500Y-58617866D01*
X143906745Y-58555684D01*
X143855615Y-58419295D01*
X143768261Y-58302739D01*
X143651705Y-58215385D01*
X143515316Y-58164255D01*
X143453134Y-58157500D01*
X139756866Y-58157500D01*
X139694684Y-58164255D01*
X139558295Y-58215385D01*
X139441739Y-58302739D01*
X139354385Y-58419295D01*
X139303255Y-58555684D01*
X139296500Y-58617866D01*
X139296500Y-60914134D01*
X139303255Y-60976316D01*
X139354385Y-61112705D01*
X139441739Y-61229261D01*
X139558295Y-61316615D01*
X139694684Y-61367745D01*
X139756866Y-61374500D01*
X140767300Y-61374500D01*
X140835421Y-61394502D01*
X140881914Y-61448158D01*
X140893300Y-61500500D01*
X140893300Y-64254047D01*
X140873298Y-64322168D01*
X140819642Y-64368661D01*
X140811530Y-64372029D01*
X140762636Y-64390359D01*
X140748695Y-64395585D01*
X140632139Y-64482939D01*
X140626758Y-64490119D01*
X140626757Y-64490120D01*
X140549813Y-64592786D01*
X140492954Y-64635301D01*
X140422135Y-64640327D01*
X140359842Y-64606267D01*
X140348160Y-64592785D01*
X140271484Y-64490475D01*
X140258924Y-64477915D01*
X140156849Y-64401414D01*
X140141254Y-64392876D01*
X140020806Y-64347722D01*
X140005551Y-64344095D01*
X139954686Y-64338569D01*
X139947872Y-64338200D01*
X139565715Y-64338200D01*
X139550476Y-64342675D01*
X139549271Y-64344065D01*
X139547600Y-64351748D01*
X139547600Y-67571284D01*
X139552075Y-67586523D01*
X139553465Y-67587728D01*
X139561148Y-67589399D01*
X139947869Y-67589399D01*
X139954690Y-67589029D01*
X140005552Y-67583505D01*
X140020804Y-67579879D01*
X140141254Y-67534724D01*
X140156849Y-67526186D01*
X140258924Y-67449685D01*
X140271484Y-67437125D01*
X140348160Y-67334815D01*
X140405019Y-67292299D01*
X140475838Y-67287273D01*
X140538131Y-67321332D01*
X140549813Y-67334814D01*
X140570650Y-67362616D01*
X140632139Y-67444661D01*
X140748695Y-67532015D01*
X140757103Y-67535167D01*
X140764975Y-67539477D01*
X140764278Y-67540751D01*
X140813352Y-67577616D01*
X140838052Y-67644178D01*
X140822844Y-67713526D01*
X140801453Y-67742051D01*
X140167277Y-68376227D01*
X140161011Y-68382080D01*
X140126603Y-68412096D01*
X140117219Y-68420282D01*
X140112853Y-68426495D01*
X140080309Y-68472801D01*
X140076375Y-68478098D01*
X140041456Y-68522632D01*
X140041454Y-68522636D01*
X140036767Y-68528613D01*
X140034627Y-68533352D01*
X139982986Y-68580570D01*
X139941213Y-68592657D01*
X139921111Y-68594841D01*
X139889684Y-68598255D01*
X139870230Y-68605548D01*
X139761699Y-68646234D01*
X139761696Y-68646236D01*
X139753295Y-68649385D01*
X139753036Y-68648693D01*
X139690626Y-68662343D01*
X139646615Y-68649420D01*
X139646462Y-68649828D01*
X139640888Y-68647738D01*
X139638966Y-68647174D01*
X139638061Y-68646679D01*
X139517606Y-68601522D01*
X139502351Y-68597895D01*
X139451486Y-68592369D01*
X139444672Y-68592000D01*
X139022115Y-68592000D01*
X139006876Y-68596475D01*
X139005671Y-68597865D01*
X139004000Y-68605548D01*
X139004000Y-69978000D01*
X138983998Y-70046121D01*
X138930342Y-70092614D01*
X138878000Y-70104000D01*
X137610116Y-70104000D01*
X137594877Y-70108475D01*
X137593672Y-70109865D01*
X137592001Y-70117548D01*
X137592001Y-70384999D01*
X137571999Y-70453120D01*
X137518343Y-70499613D01*
X137448069Y-70509717D01*
X137383489Y-70480223D01*
X137376906Y-70474094D01*
X136561905Y-69659093D01*
X136527879Y-69596781D01*
X136525848Y-69577885D01*
X137592000Y-69577885D01*
X137596475Y-69593124D01*
X137597865Y-69594329D01*
X137605548Y-69596000D01*
X138477885Y-69596000D01*
X138493124Y-69591525D01*
X138494329Y-69590135D01*
X138496000Y-69582452D01*
X138496000Y-68610116D01*
X138491525Y-68594877D01*
X138490135Y-68593672D01*
X138482452Y-68592001D01*
X138055331Y-68592001D01*
X138048510Y-68592371D01*
X137997648Y-68597895D01*
X137982396Y-68601521D01*
X137861946Y-68646676D01*
X137846351Y-68655214D01*
X137744276Y-68731715D01*
X137731715Y-68744276D01*
X137655214Y-68846351D01*
X137646676Y-68861946D01*
X137601522Y-68982394D01*
X137597895Y-68997649D01*
X137592369Y-69048514D01*
X137592000Y-69055328D01*
X137592000Y-69577885D01*
X136525848Y-69577885D01*
X136525000Y-69569998D01*
X136525000Y-67126069D01*
X138176001Y-67126069D01*
X138176371Y-67132890D01*
X138181895Y-67183752D01*
X138185521Y-67199004D01*
X138230676Y-67319454D01*
X138239214Y-67335049D01*
X138315715Y-67437124D01*
X138328276Y-67449685D01*
X138430351Y-67526186D01*
X138445946Y-67534724D01*
X138566394Y-67579878D01*
X138581649Y-67583505D01*
X138632514Y-67589031D01*
X138639328Y-67589400D01*
X139021485Y-67589400D01*
X139036724Y-67584925D01*
X139037929Y-67583535D01*
X139039600Y-67575852D01*
X139039600Y-66235915D01*
X139035125Y-66220676D01*
X139033735Y-66219471D01*
X139026052Y-66217800D01*
X138194116Y-66217800D01*
X138178877Y-66222275D01*
X138177672Y-66223665D01*
X138176001Y-66231348D01*
X138176001Y-67126069D01*
X136525000Y-67126069D01*
X136525000Y-65691685D01*
X138176000Y-65691685D01*
X138180475Y-65706924D01*
X138181865Y-65708129D01*
X138189548Y-65709800D01*
X139021485Y-65709800D01*
X139036724Y-65705325D01*
X139037929Y-65703935D01*
X139039600Y-65696252D01*
X139039600Y-64356316D01*
X139035125Y-64341077D01*
X139033735Y-64339872D01*
X139026052Y-64338201D01*
X138639331Y-64338201D01*
X138632510Y-64338571D01*
X138581648Y-64344095D01*
X138566396Y-64347721D01*
X138445946Y-64392876D01*
X138430351Y-64401414D01*
X138328276Y-64477915D01*
X138315715Y-64490476D01*
X138239214Y-64592551D01*
X138230676Y-64608146D01*
X138185522Y-64728594D01*
X138181895Y-64743849D01*
X138176369Y-64794714D01*
X138176000Y-64801528D01*
X138176000Y-65691685D01*
X136525000Y-65691685D01*
X136525000Y-58065002D01*
X136545002Y-57996881D01*
X136561905Y-57975907D01*
X136715907Y-57821905D01*
X136778219Y-57787879D01*
X136805002Y-57785000D01*
X146404998Y-57785000D01*
X146473119Y-57805002D01*
G37*
G04 #@! TD.AperFunction*
M02*
