M48
; DRILL file {KiCad 6.0.7-f9a2dced07~116~ubuntu20.04.1} date Wed 17 Aug 2022 11:17:23 PM EDT
; FORMAT={-:-/ absolute / metric / decimal}
; #@! TF.CreationDate,2022-08-17T23:17:23-04:00
; #@! TF.GenerationSoftware,Kicad,Pcbnew,6.0.7-f9a2dced07~116~ubuntu20.04.1
; #@! TF.FileFunction,MixedPlating,1,2
FMAT,2
METRIC
; #@! TA.AperFunction,Plated,PTH,ViaDrill
T1C0.406
; #@! TA.AperFunction,Plated,PTH,ViaDrill
T2C0.508
; #@! TA.AperFunction,Plated,PTH,ComponentDrill
T3C0.600
; #@! TA.AperFunction,Plated,PTH,ComponentDrill
T4C0.750
; #@! TA.AperFunction,Plated,PTH,ComponentDrill
T5C1.000
; #@! TA.AperFunction,Plated,PTH,ComponentDrill
T6C1.500
; #@! TA.AperFunction,Plated,PTH,ComponentDrill
T7C2.946
; #@! TA.AperFunction,NonPlated,NPTH,ComponentDrill
T8C0.650
; #@! TA.AperFunction,NonPlated,NPTH,ComponentDrill
T9C1.000
%
G90
G05
T1
X118.11Y-83.185
X119.38Y-74.93
X120.015Y-71.12
X121.285Y-70.485
X122.479Y-78.74
X123.825Y-74.295
X125.095Y-74.93
X128.174Y-75.565
X128.27Y-80.645
X132.715Y-75.565
X134.62Y-66.675
X134.62Y-80.645
X135.509Y-67.945
X142.24Y-75.819
X144.145Y-80.01
X154.94Y-83.185
X154.94Y-85.725
T2
X121.285Y-85.725
X125.73Y-85.725
X127.0Y-57.785
X130.175Y-79.375
X131.445Y-72.39
X133.35Y-57.785
X133.35Y-70.485
X137.16Y-60.325
X137.16Y-64.135
X140.65Y-71.755
X143.51Y-67.945
X146.05Y-60.325
X146.05Y-64.135
X148.59Y-73.66
X149.86Y-75.9
X154.94Y-63.5
T3
X132.08Y-85.09
X134.62Y-87.63
X137.16Y-85.09
T4
X134.62Y-72.66
X134.62Y-74.66
T5
X113.03Y-81.915
X113.03Y-84.455
X113.03Y-86.995
X115.57Y-81.915
X115.57Y-84.455
X115.57Y-86.995
X128.27Y-51.752
X130.81Y-51.752
X133.35Y-51.752
X135.89Y-51.752
X138.43Y-51.752
X140.97Y-51.752
X149.225Y-59.055
X149.225Y-61.595
X149.225Y-64.135
X149.225Y-66.675
T6
X124.585Y-67.62
T7
X114.935Y-53.975
X114.935Y-93.345
X154.305Y-53.975
X154.305Y-93.345
T8
X152.9Y-70.77
X152.9Y-76.55
T9
X151.755Y-81.905
X151.755Y-87.005
X156.855Y-81.905
X156.855Y-87.005
T3
X151.85Y-69.34G85X152.95Y-69.34
G05
X151.85Y-77.98G85X152.95Y-77.98
G05
X156.18Y-69.34G85X156.98Y-69.34
G05
X156.18Y-77.98G85X156.98Y-77.98
G05
T0
M30
