G04 #@! TF.GenerationSoftware,KiCad,Pcbnew,6.0.7-f9a2dced07~116~ubuntu20.04.1*
G04 #@! TF.CreationDate,2022-08-17T23:21:15-04:00*
G04 #@! TF.ProjectId,mmwave,6d6d7761-7665-42e6-9b69-6361645f7063,B*
G04 #@! TF.SameCoordinates,Original*
G04 #@! TF.FileFunction,Profile,NP*
%FSLAX46Y46*%
G04 Gerber Fmt 4.6, Leading zero omitted, Abs format (unit mm)*
G04 Created by KiCad (PCBNEW 6.0.7-f9a2dced07~116~ubuntu20.04.1) date 2022-08-17 23:21:15*
%MOMM*%
%LPD*%
G01*
G04 APERTURE LIST*
G04 #@! TA.AperFunction,Profile*
%ADD10C,0.150000*%
G04 #@! TD*
G04 APERTURE END LIST*
D10*
X150495000Y-82550000D02*
X150495000Y-80645000D01*
X111125000Y-93345000D02*
X111125000Y-53975000D01*
X145415000Y-82550000D02*
G75*
G03*
X146050000Y-83185000I635000J0D01*
G01*
X140970000Y-97155000D02*
X140970000Y-88900000D01*
X158115000Y-89535000D02*
X158115000Y-93345000D01*
X149860000Y-83185000D02*
X146050000Y-83185000D01*
X145415000Y-80010000D02*
X145415000Y-82550000D01*
X146050000Y-85725000D02*
G75*
G03*
X145415000Y-86360000I0J-635000D01*
G01*
X145415000Y-88900000D02*
G75*
G03*
X146050000Y-89535000I635000J0D01*
G01*
X150495000Y-86360000D02*
G75*
G03*
X149860000Y-85725000I-635000J0D01*
G01*
X149860000Y-83185000D02*
G75*
G03*
X150495000Y-82550000I0J635000D01*
G01*
X150495000Y-80645000D02*
X158115000Y-80645000D01*
X111125000Y-93345000D02*
G75*
G03*
X114935000Y-97155000I3810000J0D01*
G01*
X114935000Y-50165000D02*
G75*
G03*
X111125000Y-53975000I0J-3810000D01*
G01*
X158115000Y-53975000D02*
X158115000Y-79375000D01*
X154305000Y-97155000D02*
G75*
G03*
X158115000Y-93345000I0J3810000D01*
G01*
X145415000Y-86360000D02*
X145415000Y-88900000D01*
X146050000Y-79375000D02*
G75*
G03*
X145415000Y-80010000I0J-635000D01*
G01*
X149860000Y-85725000D02*
X146050000Y-85725000D01*
X128270000Y-88900000D02*
X128270000Y-97155000D01*
X158115000Y-79375000D02*
X146050000Y-79375000D01*
X158115000Y-88265000D02*
X150495000Y-88265000D01*
X158115000Y-80645000D02*
X158115000Y-88265000D01*
X114935000Y-50165000D02*
X154305000Y-50165000D01*
X128270000Y-97155000D02*
X114935000Y-97155000D01*
X150495000Y-88265000D02*
X150495000Y-86360000D01*
X140970000Y-88900000D02*
X128270000Y-88900000D01*
X158115000Y-53975000D02*
G75*
G03*
X154305000Y-50165000I-3810000J0D01*
G01*
X146050000Y-89535000D02*
X158115000Y-89535000D01*
X140970000Y-97155000D02*
X154305000Y-97155000D01*
M02*
